<svg width="31" height="31" viewBox="0 0 31 31" fill="none" xmlns="http://www.w3.org/2000/svg">
<path d="M25.311 30.8315C24.8852 30.9339 24.2795 30.9412 15.6805 30.9521L15.2323 30.9527C7.041 30.9624 6.27723 30.9636 5.56252 30.777C5.47651 30.7546 5.39111 30.7292 5.29298 30.7007C3.78724 30.2658 2.21609 29.1386 1.33117 27.8582C0.905375 27.2416 0.455348 26.2816 0.273036 25.5996C0.00108179 24.582 -0.0170886 24.069 0.00835033 18.1345C0.0301551 13.123 0.0428742 12.5488 0.138573 12.1382C0.483816 10.6597 1.0568 9.55671 2.01681 8.5228C2.30452 8.21269 3.66368 7.1388 6.73271 4.79782C11.7199 0.992879 11.3499 1.26847 11.895 0.948058C14.0628 -0.328128 17.0452 -0.314803 19.2238 0.981371C19.4237 1.10009 20.245 1.69548 21.0494 2.30419L22.5121 3.41139L22.5357 2.49014C22.5618 1.49378 22.6011 1.34902 22.9282 1.04618C23.1984 0.796635 23.3758 0.729404 23.7665 0.730009C24.3074 0.730615 24.6544 0.954114 24.8537 1.4314C24.933 1.62037 24.9476 2.01044 24.9464 3.91412C24.9452 5.98012 24.9355 6.19272 24.8331 6.4144C24.5684 6.98799 23.9064 7.25994 23.3449 7.02493C23.2323 6.97769 22.1087 6.15213 20.8483 5.1903C19.5885 4.22907 18.4352 3.35809 18.285 3.25573C16.646 2.1346 14.4122 2.13218 12.7811 3.25028C12.6357 3.35022 10.6733 4.83416 8.42016 6.54765C3.70487 10.1345 3.45654 10.3544 2.9629 11.3677C2.85145 11.5973 2.76363 11.762 2.69458 11.9334C2.44443 12.5585 2.44504 13.2829 2.44625 17.6178C2.44625 17.9413 2.44625 18.2847 2.44625 18.6493V24.4639L2.61342 24.9975C2.81329 25.6347 3.00772 26.0345 3.35478 26.5233C3.96471 27.3821 4.89081 28.0345 5.99195 28.3803L6.44379 28.522H24.6145L25.0663 28.3803C26.5672 27.9091 27.6956 26.8867 28.2443 25.5021C28.2946 25.3755 28.3376 25.2695 28.374 25.1617C28.5799 24.5511 28.5799 23.8716 28.5805 18.8764V18.5815L28.5817 12.8807L28.4364 12.3084C28.1814 11.3017 27.6744 10.4749 26.8815 9.77234C26.4273 9.36955 26.3201 9.21268 26.2553 8.8529C26.1202 8.10609 26.864 7.38471 27.6477 7.50221C28.0003 7.55491 28.3546 7.80627 28.9542 8.42831C29.7634 9.26719 30.3297 10.2121 30.6659 11.2817C30.7216 11.4598 30.7683 11.6064 30.8076 11.756C31.0093 12.5258 31.0069 13.3501 30.9911 18.6887L30.9905 18.8692L30.973 24.8879L30.8094 25.4809C30.4333 26.8503 29.8282 27.8752 28.7998 28.8855C27.7877 29.8794 26.6599 30.5087 25.311 30.8315ZM13.7121 16.8395C13.1258 17.1163 12.4359 16.9643 11.978 16.4561C11.709 16.1575 11.5976 15.8474 11.6006 15.4089C11.6049 14.8825 11.9253 14.3907 12.4401 14.12C12.7805 13.9413 13.434 13.9425 13.7811 14.1236C14.0967 14.2871 14.4286 14.6705 14.52 14.9764C14.749 15.7414 14.4177 16.5058 13.7121 16.8395ZM18.5576 16.8395C18.0064 17.1 17.365 16.9843 16.9016 16.5409C16.1687 15.8395 16.3347 14.6003 17.2202 14.1672C17.8683 13.8498 18.6248 13.9758 19.0627 14.4737C19.7314 15.2332 19.4818 16.4022 18.5576 16.8395ZM13.7121 21.685C13.1609 21.9455 12.5195 21.8298 12.0561 21.3864C11.3232 20.685 11.4892 19.4458 12.3747 19.0127C13.0228 18.6953 13.7793 18.8213 14.2172 19.3192C14.8859 20.0787 14.6363 21.2477 13.7121 21.685ZM18.5576 21.685C18.0064 21.9455 17.365 21.8298 16.9016 21.3864C16.1687 20.685 16.3347 19.4458 17.2202 19.0127C17.8683 18.6953 18.6248 18.8213 19.0627 19.3192C19.7314 20.0787 19.4818 21.2477 18.5576 21.685Z" fill="currentColor"/>
</svg>
