<svg width="751" height="147" viewBox="0 0 751 147" fill="none" xmlns="http://www.w3.org/2000/svg">
<path d="M47.8556 145.305C31.4756 140.885 20.8456 129.975 17.5656 114.185L16.4956 109.025L8.79558 107.335C4.55558 106.405 0.705558 105.275 0.215558 104.825C-0.274442 104.355 0.0955741 100.935 1.07557 96.915C3.00557 89.065 2.94556 89.095 11.0956 91.265C13.8456 92.005 16.3756 92.445 16.7156 92.245C17.0556 92.055 17.6356 89.585 18.0156 86.765C18.8056 80.745 22.4456 70.655 26.0156 64.575C32.3556 53.745 44.6155 43.715 56.4255 39.675C69.5555 35.185 85.8556 37.145 93.4656 44.145C102.896 52.815 102.696 70.905 93.0256 83.235C83.7056 95.125 61.5656 105.615 41.7756 107.535C35.5756 108.135 35.4656 108.195 36.0856 110.745C37.4356 116.345 40.9256 121.915 44.9156 124.845C59.5456 135.605 82.1956 131.225 99.1256 114.355C108.726 104.785 115.456 94.215 128.396 68.345C134.536 56.065 140.656 45.155 142.246 43.655C150.076 36.275 160.766 37.595 165.176 46.475C166.916 49.975 167.146 53.415 167.596 82.845L168.096 115.345L177.456 96.375C189.566 71.835 192.416 67.385 197.016 65.865C204.066 63.545 207.686 65.755 213.416 75.845C217.256 82.635 221.196 87.565 222.076 86.695C222.436 86.335 223.416 83.405 224.256 80.195C226.776 70.485 233.336 59.065 240.386 52.105C261.156 31.605 296.406 32.365 303.696 53.465C305.756 59.425 305.336 69.495 302.796 75.175C295.336 91.875 273.696 104.205 246.346 107.335C239.636 108.095 239.406 108.735 242.976 116.415C250.056 131.625 270.036 135.225 290.396 124.945C302.506 118.835 313.776 106.685 320.476 92.515C327.076 78.585 328.076 73.535 327.826 55.595L327.616 39.845H335.966H344.316L344.946 45.095C345.296 47.985 345.586 52.345 345.586 54.795L345.596 59.235L348.416 54.795C352.586 48.225 360.826 41.265 366.876 39.215C372.936 37.155 384.986 36.895 391.256 38.685C397.486 40.465 404.696 45.745 408.336 51.195C414.706 60.715 414.906 62.315 415.356 105.095L415.756 143.845H406.236H396.706L396.376 107.095C396.086 74.925 395.826 69.785 394.286 65.875C389.966 54.885 379.346 50.325 367.466 54.375C361.136 56.535 356.456 60.755 352.796 67.615C347.306 77.925 346.626 83.115 346.606 115.095L346.596 143.845H337.096H327.596V128.845C327.596 120.595 327.416 113.845 327.196 113.845C326.976 113.845 322.356 118.265 316.946 123.665C301.196 139.375 288.036 145.745 269.596 146.585C253.126 147.325 242.856 143.995 233.046 134.705C226.996 128.985 222.956 120.895 221.376 111.305C220.316 104.935 220.256 104.845 215.106 101.935C212.246 100.325 208.086 96.935 205.856 94.405L201.806 89.795L189.086 115.075C182.096 128.975 175.636 141.175 174.736 142.195C168.516 149.235 157.506 147.965 151.156 139.465C149.186 136.825 149.086 135.215 148.796 104.275C148.626 86.435 148.176 71.845 147.796 71.845C147.406 71.855 144.646 76.685 141.646 82.595C127.426 110.615 109.606 130.825 90.7456 140.295C78.6356 146.375 59.9456 148.555 47.8556 145.305ZM52.0956 90.165C65.2956 86.905 76.6756 79.435 80.5056 71.525C83.5756 65.195 83.2856 59.645 79.6756 55.615C76.9556 52.565 76.3156 52.345 70.4156 52.365C58.4656 52.385 47.5656 60.245 41.5456 73.165C38.7456 79.175 35.3656 91.275 36.2356 92.155C36.9356 92.855 45.5956 91.765 52.0956 90.165ZM258.006 89.865C267.846 87.355 274.506 83.715 279.956 77.895C285.896 71.545 288.286 65.095 286.686 59.765C284.496 52.435 276.476 49.965 266.206 53.465C259.916 55.605 250.776 64.165 246.786 71.635C243.966 76.925 240.596 87.225 240.596 90.555C240.596 92.505 248.996 92.175 258.006 89.865ZM466.006 145.855C455.786 143.735 448.306 138.085 444.466 129.585C442.146 124.445 442.086 123.675 441.786 89.785L441.476 55.225L435.576 55.655C432.326 55.885 428.526 55.795 427.136 55.445C424.706 54.835 424.596 54.495 424.596 47.365V39.925L432.846 39.635L441.096 39.345L441.376 24.595L441.646 9.84501H450.596H459.546L459.816 24.595L460.096 39.345L474.386 39.625L488.676 39.905L488.386 47.625L488.096 55.345L473.846 55.625L459.596 55.895L459.606 85.125C459.606 115.715 460.136 120.545 463.946 124.695C468.076 129.195 471.316 130.165 480.136 129.535L488.266 128.965L489.406 135.085C490.186 139.265 490.216 141.595 489.516 142.435C487.376 145.025 472.456 147.185 466.006 145.855ZM657.596 145.245C646.126 142.175 634.486 132.465 629.106 121.465C621.046 104.985 620.736 80.815 628.386 64.485C631.956 56.845 641.636 46.225 648.376 42.565C662.786 34.715 684.426 35.405 698.266 44.135C707.226 49.795 714.866 61.195 718.296 74.055C720.386 81.865 720.616 100.145 718.726 107.845C714.066 126.845 701.246 141.135 685.136 145.305C677.736 147.215 664.876 147.185 657.596 145.245ZM680.836 129.655C686.726 127.895 693.806 121.005 696.966 113.955C700.676 105.685 702.146 93.505 700.726 82.895C698.076 63.255 688.146 52.815 672.146 52.865C667.426 52.885 663.736 53.505 660.956 54.765C647.776 60.755 640.676 76.065 641.906 95.845C643.026 113.955 649.436 124.655 662.046 129.515C666.076 131.075 675.876 131.145 680.836 129.655ZM503.596 91.845V39.845H513.096H522.596V91.845V143.845H513.096H503.596V91.845ZM536.596 136.585V129.335L562.696 94.835C577.056 75.865 589.606 59.225 590.586 57.845L592.376 55.345H566.236H540.096L539.806 47.595L539.516 39.845H577.556H615.596V46.685V53.525L587.596 90.775C572.196 111.255 559.596 128.205 559.596 128.435C559.596 128.655 572.426 128.845 588.096 128.845H616.596V136.345V143.845H576.596H536.596V136.585ZM504.476 20.965C501.206 17.695 500.596 16.425 500.596 12.915C500.596 4.14502 506.016 -0.754988 514.796 0.0950123C531.066 1.65501 529.226 24.845 512.826 24.845C508.976 24.845 507.826 24.315 504.476 20.965Z" fill="#000000"/>
<circle cx="734" cy="133" r="14" fill="#000000"/>
</svg>
