<svg width="32" height="31" viewBox="0 0 32 31" fill="none" xmlns="http://www.w3.org/2000/svg">
<path d="M25.3184 30.8374C24.8926 30.9398 24.2851 30.9471 15.6879 30.9592C15.3348 30.9592 14.9944 30.9598 14.6668 30.9604C7.01569 30.9707 6.22164 30.9719 5.48815 30.7623C5.37185 30.729 5.25677 30.6902 5.11625 30.6454C2.35613 29.7666 0.39612 27.3705 0.0635973 24.4686C-0.0211991 23.726 -0.0211991 7.22465 0.0635973 6.48208C0.440941 3.19319 2.78617 0.706233 6.10474 0.0769223C6.41909 0.0175648 8.05808 0 13.3258 0C17.0738 0 20.2124 0.0205934 20.3015 0.0454267C20.545 0.113869 20.8399 0.388852 20.9647 0.663835C21.2312 1.25075 21.0023 1.95335 20.4426 2.26225C20.2772 2.3531 19.6316 2.36521 13.3863 2.39489C6.96239 2.42518 6.48572 2.43487 6.11806 2.53844C4.33128 3.04237 3.03995 4.34339 2.56691 6.11746C2.45849 6.52206 2.45365 6.94422 2.45365 15.4753C2.45365 24.0065 2.45849 24.4286 2.56691 24.8332C3.02905 26.5655 4.26041 27.8399 5.99935 28.3862L6.45119 28.5279H24.6219L25.0761 28.3862C26.7006 27.8786 27.8641 26.7254 28.4159 25.0755L28.5576 24.6515L28.5885 18.4129C28.6176 12.5402 28.6006 12.0369 28.8441 11.7843C28.8859 11.7413 28.9344 11.7055 28.9925 11.6516C29.2626 11.4021 29.4401 11.3349 29.8308 11.3355C30.3717 11.3361 30.7187 11.5596 30.918 12.0369C31.0579 12.3718 31.0591 24.1367 30.9192 24.9362C30.6466 26.494 29.9883 27.7278 28.809 28.8914C27.8054 29.881 26.6721 30.5134 25.3184 30.8374ZM12.2658 26.0168C11.4372 26.1833 9.90846 26.2318 9.44935 26.1052C8.31429 25.7939 7.304 24.9065 6.96603 23.9247C6.67348 23.0749 6.74434 22.5686 7.32581 21.3505C7.81581 20.3251 7.96844 19.9459 8.48085 18.4735C9.27431 16.1949 9.74372 15.3609 10.8218 14.3161C11.6389 13.5244 12.5789 13.0096 13.6444 12.7709C14.313 12.6207 15.519 12.6353 16.1943 12.8006C18.25 13.3052 19.7539 14.7522 20.3905 16.8381C20.5438 17.3415 20.5571 17.465 20.5601 18.4432C20.5631 19.677 20.508 19.9447 20.0544 20.8963C18.9023 23.3136 15.9048 25.2845 12.2658 26.0168ZM22.9586 14.6122C22.4656 14.8606 21.9023 14.74 21.5195 14.3046C21.1555 13.8897 21.121 13.3342 21.4317 12.88C21.5207 12.7504 23.1058 10.8412 24.955 8.63773C26.8041 6.43423 28.3777 4.51844 28.4528 4.38034C28.6164 4.07992 28.6345 3.5881 28.4952 3.25376C28.3892 2.99937 28.0888 2.66321 27.8623 2.54571C27.3971 2.30465 26.7424 2.39126 26.3462 2.74619C26.2106 2.86794 24.5813 4.834 22.726 7.11563C20.2064 10.2131 19.2912 11.2979 19.1101 11.3997C18.0768 11.9823 16.8696 10.6777 17.5347 9.69768C17.886 9.18042 24.3348 1.29496 24.6534 0.993935C25.3396 0.344637 26.1773 0.021805 27.196 0.013931C27.9525 0.00847984 28.4195 0.116292 29.0313 0.437913C29.8429 0.864318 30.4843 1.61355 30.8108 2.51724C30.9537 2.91215 30.9743 3.06115 30.9773 3.72499C30.9822 4.59839 30.8653 5.07446 30.4958 5.69347C30.3759 5.89335 28.6921 7.95088 26.7533 10.2664C23.8169 13.774 23.1839 14.499 22.9586 14.6122ZM9.87515 23.7103C10.1041 23.8078 11.2749 23.7424 11.9932 23.5922C13.3482 23.3081 14.8739 22.6891 15.8999 22.0065C16.4923 21.6122 17.2912 20.8363 17.5922 20.3633C17.9665 19.7745 18.1228 19.2833 18.1555 18.5946C18.204 17.5747 17.929 16.8285 17.2331 16.0907C15.7649 14.5347 13.2815 14.797 11.969 16.6474C11.5626 17.2197 11.2489 17.8987 10.8128 19.1482C10.2676 20.7109 9.9763 21.4371 9.55595 22.2815C9.22585 22.9465 9.20405 23.0144 9.27249 23.1785C9.34881 23.3638 9.61713 23.6001 9.87515 23.7103Z" fill="currentColor"/>
</svg>
