<svg width="31" height="30" viewBox="0 0 31 30" fill="none" xmlns="http://www.w3.org/2000/svg">
<path d="M25.1046 28.9641C24.6921 29.0568 23.8478 29.0671 15.7479 29.078C10.7788 29.0846 6.65712 29.0659 6.4203 29.0356C3.65412 28.6818 1.32706 26.8054 0.402783 24.1834C0.32586 23.9647 0.262869 23.7933 0.212596 23.6183C-3.32137e-07 22.8806 0 22.081 0 17.3876C0 17.2386 0 17.0859 0 16.9291C0 16.7722 0 16.6196 0 16.4706C0 11.7771 -3.32137e-07 10.9776 0.212596 10.2398C0.263474 10.0648 0.32586 9.89338 0.402783 9.67473C1.28769 7.16536 3.42941 5.35798 6.04962 4.90796C6.45361 4.8383 7.0587 4.81529 8.47419 4.81529H10.3603L10.6535 3.92189C10.8152 3.43068 11.0526 2.82378 11.181 2.57424C11.7885 1.39617 12.8685 0.517924 14.1767 0.139369C14.6558 0.000666339 14.6704 6.04688e-05 18.5038 6.04688e-05C18.6576 6.04688e-05 18.8054 6.04688e-05 18.9484 6.04688e-05C21.8751 -0.00054522 22.5141 -0.00054534 23.0761 0.207206C23.2603 0.275043 23.4365 0.365291 23.6824 0.485217C24.6255 0.945541 25.3547 1.68569 25.8296 2.66509C25.9913 2.99822 26.2669 3.73413 26.4419 4.30045C26.617 4.86677 26.7872 5.36465 26.8193 5.40704C26.852 5.44884 27.0591 5.57906 27.2796 5.69475C28.1003 6.12842 29.1445 7.07329 29.6896 7.87644C30.0422 8.3949 30.4571 9.24771 30.6412 9.8322C30.6969 10.0085 30.7429 10.155 30.7823 10.304C30.981 11.0672 30.981 11.8813 30.981 16.9024V16.9793C30.981 22.0162 30.981 22.84 30.7696 23.6056C30.7278 23.7576 30.6769 23.9078 30.617 24.0883C29.7811 26.5819 27.766 28.3645 25.1046 28.9641ZM6.42939 26.5843C6.82914 26.6576 8.30157 26.6697 15.6873 26.6607L24.4698 26.6498L24.9392 26.5165C26.4656 26.0822 27.6994 24.9726 28.2451 23.5438C28.5673 22.7013 28.5685 22.6746 28.5467 16.6868C28.5285 11.7201 28.5461 10.9994 28.2954 10.3882C28.2318 10.2326 28.15 10.0836 28.0464 9.87279C27.5334 8.83342 26.8478 8.16898 25.7363 7.63295C25.3244 7.43428 25.0028 7.23562 24.9059 7.11993C24.7951 6.9885 24.5898 6.4458 24.2294 5.33497C23.8732 4.23564 23.6509 3.64691 23.5159 3.44643C23.2221 3.01033 22.7545 2.66025 22.2706 2.51306C21.8714 2.39193 21.7497 2.38829 18.3487 2.40525L14.8394 2.42282L14.4953 2.58393C14.0889 2.77472 13.6468 3.16357 13.4039 3.54334C13.3058 3.69718 13.0332 4.42401 12.7794 5.21019C12.3676 6.48396 12.3088 6.62387 12.0998 6.82314C11.6837 7.22169 11.8134 7.20473 8.93391 7.24107C6.39486 7.27317 6.28402 7.27923 5.87518 7.41369C4.19803 7.96487 3.03632 9.16776 2.55843 10.8492L2.42336 11.3264V22.5317L2.55843 23.009C3.09022 24.8799 4.56932 26.2458 6.42939 26.5843ZM19.7642 24.2264C17.3409 24.6879 14.8588 23.8763 13.1313 22.058C11.714 20.5656 10.9811 18.5008 11.1786 16.5517C11.5105 13.2646 13.4148 10.9539 16.4935 10.1017C17.0483 9.9485 17.1537 9.93941 18.4129 9.93941C19.6722 9.93941 19.7776 9.9485 20.3324 10.1017C22.3602 10.6632 23.8666 11.8498 24.769 13.5972C25.5195 15.0502 25.8157 16.8164 25.557 18.2985C25.038 21.2761 22.7006 23.6673 19.7642 24.2264ZM17.3833 21.8097C17.6261 21.866 18.018 21.8872 18.5644 21.8739C19.2948 21.8563 19.4432 21.8333 19.9574 21.6595C21.9035 21.0029 23.1028 19.39 23.2112 17.2846C23.2663 16.2216 23.0192 15.3016 22.445 14.433C21.7915 13.4445 20.9296 12.8007 19.7733 12.4373C19.3832 12.3149 19.1967 12.2955 18.4129 12.2955C17.6298 12.2955 17.442 12.3149 17.0501 12.4373C14.9436 13.0957 13.5892 14.8855 13.582 17.0199C13.5747 19.4051 15.058 21.2743 17.3833 21.8097ZM21.6982 7.06057L21.4414 7.20776L18.5946 7.21866C17.0289 7.22471 15.6795 7.20836 15.5959 7.18232C15.0932 7.02605 14.7988 6.73168 14.6898 6.2756C14.5971 5.89099 14.7213 5.40644 14.9732 5.16537C15.0338 5.10723 15.0835 5.05938 15.1398 5.0188C15.422 4.81529 15.8515 4.81529 18.4886 4.81529H18.5129C21.3651 4.81529 21.4396 4.81831 21.6988 4.94369C21.8587 5.02122 22.0289 5.16961 22.127 5.31801C22.2651 5.52697 22.2893 5.62812 22.2893 5.99698C22.2893 6.37191 22.2669 6.46336 22.1222 6.67233C22.0301 6.80497 21.8393 6.98002 21.6982 7.06057ZM6.94483 13.0781C6.41727 13.3452 5.97088 13.3301 5.45362 13.0272C4.43909 12.4324 4.48876 10.9854 5.54326 10.43C5.83944 10.2738 5.92061 10.258 6.29916 10.2816C6.8037 10.3131 7.16045 10.4754 7.39304 10.7807C7.9745 11.5433 7.75524 12.6674 6.94483 13.0781ZM6.94483 17.9236C6.41727 18.1907 5.97088 18.1756 5.45362 17.8727C4.43909 17.2779 4.48876 15.8309 5.54326 15.2755C5.83944 15.1193 5.92061 15.1035 6.29916 15.1271C6.8037 15.1586 7.16045 15.321 7.39304 15.6262C7.9745 16.3888 7.75524 17.5129 6.94483 17.9236Z" fill="currentColor"/>
</svg>
