<svg width="29" height="31" viewBox="0 0 29 31" fill="none" xmlns="http://www.w3.org/2000/svg">
<path d="M28.5885 29.1675V30.9846H0V29.1675H1.9382V10.4518H6.60201V4.30402L14.2791 2.15201L21.9562 0L21.972 3.4391L21.9877 6.8782H26.7109V29.1675H28.5885ZM13.204 10.4518V29.1675H20.1694V15.7776C20.1694 3.05388 20.164 2.38944 20.0634 2.41973C19.7467 2.51543 8.47298 5.66682 8.44815 5.66682C8.4324 5.66682 8.41907 6.74313 8.41907 8.05929V10.4518H13.204ZM3.75527 12.2688V29.1675H11.3869V12.2688H3.75527ZM21.9865 8.69527V29.1675H24.8938V8.69527H21.9865ZM8.47964 15.1761V18.8103H6.66258V15.1761H8.47964ZM17.2621 15.1761V18.8103H15.4451V15.1761H17.2621ZM8.47964 21.8387V25.4728H6.66258V21.8387H8.47964ZM17.2621 21.8387V25.4728H15.4451V21.8387H17.2621ZM17.2476 10.3155L17.2318 12.1174L15.4451 12.1507V8.51356H17.2639L17.2476 10.3155Z" fill="currentColor"/>
</svg>
